<?xml version="1.0" encoding="UTF-8" standalone="no"?>
<!-- Created with Inkscape (http://www.inkscape.org/) -->

<svg
   xmlns:dc="http://purl.org/dc/elements/1.1/"
   xmlns:cc="http://creativecommons.org/ns#"
   xmlns:rdf="http://www.w3.org/1999/02/22-rdf-syntax-ns#"
   xmlns:svg="http://www.w3.org/2000/svg"
   xmlns="http://www.w3.org/2000/svg"
   version="1.1"
   width="1052.3625"
   height="744.09998"
   id="svg2"
   xml:space="preserve"><metadata
     id="metadata8"><rdf:RDF><cc:Work
         rdf:about=""><dc:format>image/svg+xml</dc:format><dc:type
           rdf:resource="http://purl.org/dc/dcmitype/StillImage" /><dc:title></dc:title></cc:Work></rdf:RDF></metadata><defs
     id="defs6"><clipPath
       id="clipPath16"><path
         d="m 0,595.28 841.89,0 L 841.89,0 0,0 0,595.28 z"
         id="path18" /></clipPath></defs><g
     transform="matrix(1.25,0,0,-1.25,0,744.1)"
     id="g10"><g
       id="g12"><g
         clip-path="url(#clipPath16)"
         id="g14"><g
           transform="translate(253.0073,334.9009)"
           id="g20"><path
             d="m 0,0 458.431,0 0,-182.439 -458.431,0 0,34.39 c 8.333,-7.716 19.487,-12.431 31.739,-12.431 25.811,0 46.734,20.924 46.734,46.734 0,25.812 -20.923,46.735 -46.734,46.735 -12.252,0 -23.406,-4.717 -31.739,-12.43 L 0,0 z"
             id="path22"
             style="fill:#ce3539;fill-opacity:1;fill-rule:nonzero;stroke:none" /></g><path
           d="m 253.018,439.691 458.481,0 0,-95.311 -458.481,0 0,95.311 z"
           id="path24"
           style="fill:#6d6d6d;fill-opacity:1;fill-rule:evenodd;stroke:none" /><g
           transform="matrix(1,0,0,0.99829533,420.5283,173.3682)"
           id="g26"><path
             d="m 0,0 c -10.76,0 -20.607,1.284 -29.535,3.844 -8.859,2.558 -16.58,6.51 -23.165,11.856 -6.517,5.344 -11.568,12.076 -15.154,20.204 -3.588,8.124 -5.378,17.638 -5.378,28.546 0,11.493 1.9,21.407 5.707,29.756 3.877,8.343 9.258,15.261 16.141,20.75 6.658,5.196 14.346,9 23.058,11.42 8.706,2.415 17.749,3.624 27.117,3.624 8.418,0 16.177,-0.917 23.278,-2.747 7.1,-1.831 13.722,-4.21 19.873,-7.136 l 0,-33.708 -5.599,0 c -1.537,1.32 -3.404,2.855 -5.6,4.612 -2.124,1.758 -4.76,3.476 -7.904,5.161 -3.004,1.61 -6.296,2.926 -9.882,3.952 -3.589,1.098 -7.762,1.647 -12.516,1.647 -10.542,0 -18.667,-3.37 -24.376,-10.1 -5.637,-6.665 -8.454,-15.738 -8.454,-27.231 0,-11.858 2.889,-20.86 8.674,-27.009 5.853,-6.149 14.126,-9.223 24.813,-9.223 4.975,0 9.439,0.55 13.396,1.647 4.025,1.169 7.353,2.521 9.99,4.063 2.488,1.462 4.685,2.997 6.59,4.611 1.901,1.61 3.656,3.18 5.269,4.72 l 5.599,0 0,-33.707 C 35.718,6.622 29.206,4.315 22.397,2.636 15.662,0.88 8.197,0 0,0 M 273.763,4.391 C 269.515,3.295 265.014,2.455 260.26,1.868 255.5,1.209 249.68,0.88 242.802,0.88 c -15.372,0 -26.829,3.107 -34.367,9.331 -7.465,6.222 -11.2,16.871 -11.2,31.949 l 0,57.646 -16.249,0 0,26.789 16.249,0 0,35.245 39.529,0 0,-35.245 36.999,0 0,-26.789 -36.999,0 0,-43.701 c 0,-4.318 0.032,-8.089 0.107,-11.306 0.073,-3.226 0.654,-6.116 1.758,-8.677 1.023,-2.562 2.816,-4.609 5.379,-6.148 2.636,-1.465 6.442,-2.195 11.42,-2.195 2.049,0 4.717,0.439 8.013,1.317 3.369,0.878 5.708,1.679 7.03,2.417 l 3.292,0 0,-27.122 z m -139.701,31.074 0,25.693 C 128.716,60.717 122.933,60.092 116.714,59.29 110.49,58.555 105.769,57.678 102.549,56.654 98.597,55.41 95.558,53.58 93.436,51.165 91.385,48.82 90.361,45.711 90.361,41.832 c 0,-2.562 0.221,-4.649 0.66,-6.257 0.439,-1.614 1.538,-3.149 3.295,-4.614 1.68,-1.464 3.694,-2.563 6.038,-3.292 2.34,-0.659 6.001,-0.988 10.979,-0.988 3.951,0 7.938,0.802 11.969,2.415 4.094,1.609 7.68,3.731 10.76,6.369 m 0,-19.106 c -2.124,-1.612 -4.76,-3.55 -7.907,-5.82 C 123.006,8.27 120.042,6.477 117.261,5.16 113.382,3.402 109.356,2.124 105.185,1.316 101.012,0.438 96.435,0 91.46,0 79.747,0 69.939,3.623 62.033,10.87 54.129,18.117 50.177,27.373 50.177,38.649 c 0,9.003 2.011,16.361 6.039,22.068 4.024,5.71 9.734,10.211 17.127,13.506 7.319,3.295 16.394,5.631 27.229,7.026 10.833,1.39 22.068,2.412 33.708,3.074 l 0,0.659 c 0,6.809 -2.781,11.491 -8.343,14.053 -5.567,2.636 -13.762,3.955 -24.594,3.955 -6.518,0 -13.471,-1.174 -20.864,-3.515 -7.392,-2.27 -12.701,-4.028 -15.918,-5.269 l -3.623,0 0,29.754 c 4.169,1.098 10.94,2.378 20.311,3.843 9.441,1.537 18.885,2.305 28.328,2.305 22.469,0 38.683,-3.479 48.638,-10.43 10.025,-6.883 15.041,-17.716 15.043,-32.501 l 0,-83.882 -39.196,0 0,13.064 z"
             id="path28"
             style="fill:#ffffff;fill-opacity:1;fill-rule:nonzero;stroke:none" /></g><g
           transform="translate(554.5898,189.7275)"
           id="g30"><path
             d="m 0,0 c -2.124,-1.612 -4.76,-3.551 -7.906,-5.82 -3.15,-2.27 -6.114,-4.063 -8.895,-5.379 -3.879,-1.758 -7.904,-3.036 -12.076,-3.844 -4.173,-0.878 -8.75,-1.316 -13.725,-1.316 -11.712,0 -21.52,3.623 -29.426,10.87 -7.905,7.247 -11.857,16.503 -11.857,27.779 0,9.003 2.012,16.36 6.039,22.067 4.025,5.71 9.735,10.211 17.127,13.506 7.32,3.295 16.395,5.632 27.23,7.027 10.833,1.389 22.067,2.412 33.708,3.074 l 0,0.659 c 0,6.809 -2.782,11.49 -8.344,14.053 -5.566,2.636 -13.762,3.955 -24.594,3.955 -6.517,0 -13.47,-1.174 -20.863,-3.516 -7.393,-2.269 -12.701,-4.027 -15.919,-5.268 l -3.623,0 0,29.754 c 4.17,1.098 10.94,2.378 20.311,3.842 9.442,1.537 18.885,2.306 28.329,2.306 22.468,0 38.682,-3.479 48.637,-10.431 10.026,-6.882 15.041,-17.715 15.043,-32.501 l 0,-83.881 L 0,-13.064 0,0 z m 0,19.105 0,25.694 c -5.346,-0.442 -11.129,-1.067 -17.348,-1.868 -6.223,-0.736 -10.945,-1.613 -14.165,-2.636 -3.952,-1.244 -6.991,-3.074 -9.113,-5.489 -2.051,-2.345 -3.074,-5.454 -3.074,-9.333 0,-2.563 0.221,-4.65 0.66,-6.257 0.438,-1.614 1.537,-3.15 3.295,-4.614 1.68,-1.464 3.693,-2.563 6.038,-3.292 2.34,-0.66 6.001,-0.989 10.978,-0.989 3.952,0 7.939,0.803 11.969,2.415 4.095,1.61 7.681,3.732 10.76,6.369"
             id="path32"
             style="fill:#ffffff;fill-opacity:1;fill-rule:evenodd;stroke:none" /></g><g
           transform="matrix(1,0,0,0.99828601,694.291,177.75278)"
           id="g34"><path
             d="m 0,0 c -4.248,-1.096 -8.749,-1.936 -13.503,-2.522 -4.76,-0.66 -10.58,-0.989 -17.458,-0.989 -15.372,0 -26.829,3.108 -34.367,9.331 -7.465,6.222 -11.199,16.871 -11.199,31.95 l 0,57.645 -16.249,0 0,26.79 16.249,0 0,35.244 39.528,0 0,-35.244 36.999,0 0,-26.79 -36.999,0 0,-43.7 c 0,-4.319 0.032,-8.09 0.107,-11.307 0.074,-3.225 0.655,-6.116 1.758,-8.677 1.024,-2.562 2.817,-4.609 5.379,-6.148 2.636,-1.465 6.442,-2.194 11.42,-2.194 2.049,0 4.717,0.438 8.014,1.316 3.368,0.878 5.708,1.68 7.029,2.417 L 0,27.122 0,0 z"
             id="path36"
             style="fill:#ffffff;fill-opacity:1;fill-rule:evenodd;stroke:none" /></g><g
           transform="translate(420.5283,173.3682)"
           id="g38"><path
             d="m 0,0 c -10.76,0 -20.607,1.284 -29.535,3.844 -8.859,2.558 -16.58,6.51 -23.165,11.856 -6.517,5.344 -11.568,12.076 -15.154,20.204 -3.588,8.124 -5.378,17.638 -5.378,28.546 0,11.493 1.9,21.407 5.707,29.756 3.877,8.343 9.258,15.261 16.141,20.75 6.658,5.196 14.346,9 23.058,11.42 8.706,2.415 17.749,3.624 27.117,3.624 8.418,0 16.177,-0.917 23.278,-2.747 7.1,-1.831 13.722,-4.21 19.873,-7.136 l 0,-33.708 -5.599,0 c -1.537,1.32 -3.404,2.855 -5.6,4.612 -2.124,1.758 -4.76,3.476 -7.904,5.161 -3.004,1.61 -6.296,2.926 -9.882,3.952 -3.589,1.098 -7.762,1.647 -12.516,1.647 -10.542,0 -18.667,-3.37 -24.376,-10.1 -5.637,-6.665 -8.454,-15.738 -8.454,-27.231 0,-11.858 2.889,-20.86 8.674,-27.009 5.853,-6.149 14.126,-9.223 24.813,-9.223 4.975,0 9.439,0.55 13.396,1.647 4.025,1.169 7.353,2.521 9.99,4.063 2.488,1.462 4.685,2.997 6.59,4.611 1.901,1.61 3.656,3.18 5.269,4.72 l 5.599,0 0,-33.707 C 35.718,6.622 29.206,4.315 22.397,2.636 15.662,0.88 8.197,0 0,0"
             id="path40"
             style="fill:#ffffff;fill-opacity:1;fill-rule:evenodd;stroke:none" /></g><g
           transform="translate(309.5767,411.0015)"
           id="g42"><path
             d="m 0,0 -25.64,0 0,-10.369 23.766,0 0,-10.779 -23.766,0 0,-23.806 -14.299,0 0,55.733 L 0,10.779 0,0 z"
             id="path44"
             style="fill:#ffffff;fill-opacity:1;fill-rule:evenodd;stroke:none" /></g><g
           transform="translate(359.0967,366.0479)"
           id="g46"><path
             d="m 0,0 -13.476,0 0,4.642 c -2.495,-1.897 -4.779,-3.345 -6.848,-4.341 -2.074,-0.974 -4.541,-1.461 -7.412,-1.461 -4.642,0 -8.223,1.335 -10.743,4.005 -2.495,2.669 -3.742,6.613 -3.742,11.827 l 0,27.362 13.549,0 0,-20.848 c 0,-2.122 0.063,-3.894 0.188,-5.315 0.148,-1.398 0.474,-2.558 0.973,-3.481 0.474,-0.925 1.184,-1.598 2.134,-2.021 0.973,-0.425 2.32,-0.637 4.043,-0.637 1.146,0 2.419,0.212 3.816,0.637 1.397,0.423 2.743,1.046 4.042,1.87 l 0,29.795 L 0,42.034 0,0 z"
             id="path48"
             style="fill:#ffffff;fill-opacity:1;fill-rule:evenodd;stroke:none" /></g><g
           transform="translate(412.5088,366.0479)"
           id="g50"><path
             d="m 0,0 -13.548,0 0,20.848 c 0,1.696 -0.088,3.381 -0.264,5.053 -0.175,1.696 -0.474,2.944 -0.897,3.744 -0.499,0.922 -1.234,1.596 -2.21,2.021 -0.948,0.424 -2.282,0.634 -4.004,0.637 -1.224,0 -2.471,-0.2 -3.742,-0.599 -1.249,-0.402 -2.607,-1.037 -4.082,-1.91 l 0,-29.794 -13.474,0 0,42.034 13.474,0 0,-4.64 c 2.397,1.87 4.691,3.304 6.888,4.302 2.219,0.998 4.677,1.497 7.375,1.497 4.539,0 8.082,-1.321 10.628,-3.966 C -1.284,36.581 0,32.626 0,27.362 L 0,0 z"
             id="path52"
             style="fill:#ffffff;fill-opacity:1;fill-rule:evenodd;stroke:none" /></g><g
           transform="translate(450.7627,377.6519)"
           id="g54"><path
             d="m 0,0 0,20.624 c -0.948,0.398 -1.946,0.684 -2.994,0.86 -1.048,0.175 -2.009,0.261 -2.882,0.262 -3.545,0 -6.201,-1.111 -7.974,-3.331 -1.77,-2.197 -2.655,-5.254 -2.655,-9.171 0,-4.118 0.709,-7.112 2.134,-8.982 1.422,-1.848 3.703,-2.771 6.848,-2.771 1.221,0 2.52,0.226 3.894,0.675 C -2.26,-1.36 -1.049,-0.75 0,0 m 13.476,-11.604 -13.476,0 0,4.379 c -2.319,-1.897 -4.491,-3.293 -6.513,-4.191 -2.021,-0.898 -4.353,-1.348 -6.998,-1.348 -5.118,0 -9.208,1.971 -12.277,5.914 -3.07,3.942 -4.605,9.256 -4.605,15.945 0,3.567 0.512,6.724 1.535,9.47 1.048,2.769 2.47,5.139 4.265,7.111 1.698,1.871 3.757,3.318 6.18,4.341 2.417,1.048 4.839,1.572 7.259,1.572 2.52,0 4.579,-0.273 6.176,-0.822 1.62,-0.524 3.28,-1.199 4.978,-2.021 l 0,17.892 13.476,0 0,-58.242 z"
             id="path56"
             style="fill:#ffffff;fill-opacity:1;fill-rule:evenodd;stroke:none" /></g><g
           transform="translate(500.8818,370.5024)"
           id="g58"><path
             d="m 0,0 c -0.722,-0.55 -1.622,-1.21 -2.693,-1.985 -1.076,-0.773 -2.086,-1.384 -3.035,-1.833 -1.321,-0.599 -2.693,-1.036 -4.117,-1.31 -1.422,-0.3 -2.981,-0.449 -4.676,-0.449 -3.995,0 -7.337,1.235 -10.034,3.705 -2.692,2.47 -4.042,5.627 -4.042,9.47 0,3.069 0.688,5.577 2.059,7.524 1.372,1.946 3.318,3.481 5.841,4.604 2.495,1.122 5.587,1.92 9.283,2.395 3.69,0.474 7.519,0.822 11.489,1.048 l 0,0.225 c 0,2.32 -0.947,3.917 -2.844,4.79 -1.898,0.898 -4.693,1.348 -8.384,1.348 -2.222,0 -4.592,-0.4 -7.113,-1.197 -2.519,-0.775 -4.33,-1.375 -5.425,-1.798 l -1.237,0 0,10.143 c 1.422,0.375 3.732,0.811 6.923,1.312 3.221,0.524 6.44,0.784 9.66,0.784 7.658,0 13.185,-1.186 16.58,-3.555 3.418,-2.346 5.125,-6.039 5.128,-11.079 l 0,-28.597 L 0,-4.455 0,0 z m 0,6.514 0,8.757 c -1.82,-0.149 -3.791,-0.362 -5.913,-0.635 -2.121,-0.251 -3.731,-0.551 -4.829,-0.899 -1.347,-0.425 -2.383,-1.049 -3.108,-1.872 -0.699,-0.799 -1.046,-1.86 -1.046,-3.181 0,-0.874 0.074,-1.586 0.224,-2.134 0.151,-0.55 0.525,-1.073 1.123,-1.571 0.572,-0.5 1.259,-0.875 2.06,-1.124 0.797,-0.225 2.046,-0.337 3.741,-0.337 1.349,0 2.708,0.275 4.079,0.824 1.398,0.549 2.621,1.271 3.669,2.172"
             id="path60"
             style="fill:#ffffff;fill-opacity:1;fill-rule:evenodd;stroke:none" /></g><g
           transform="translate(546.9971,364.9258)"
           id="g62"><path
             d="m 0,0 c -3.669,0 -7.026,0.438 -10.068,1.31 -3.022,0.873 -5.653,2.219 -7.899,4.043 -2.22,1.82 -3.942,4.114 -5.166,6.885 -1.221,2.771 -1.833,6.015 -1.833,9.732 0,3.917 0.647,7.299 1.946,10.143 1.322,2.846 3.155,5.204 5.501,7.075 2.273,1.771 4.891,3.069 7.862,3.894 2.969,0.822 6.051,1.233 9.246,1.233 2.868,0 5.512,-0.311 7.933,-0.935 2.42,-0.624 4.68,-1.434 6.776,-2.432 l 0,-11.491 -1.91,0 c -0.522,0.448 -1.159,0.973 -1.909,1.572 -0.724,0.598 -1.623,1.185 -2.696,1.759 -1.022,0.549 -2.146,0.998 -3.367,1.347 -1.224,0.375 -2.645,0.561 -4.266,0.561 -3.595,0 -6.364,-1.148 -8.31,-3.443 -1.921,-2.272 -2.884,-5.366 -2.884,-9.283 0,-4.042 0.986,-7.112 2.959,-9.208 1.996,-2.095 4.814,-3.143 8.459,-3.143 1.697,0 3.217,0.187 4.565,0.562 1.373,0.399 2.508,0.859 3.406,1.385 0.847,0.498 1.597,1.021 2.247,1.571 0.647,0.548 1.246,1.085 1.796,1.61 l 1.91,0 0,-11.491 C 12.177,2.258 9.955,1.471 7.636,0.899 5.339,0.299 2.793,0 0,0"
             id="path64"
             style="fill:#ffffff;fill-opacity:1;fill-rule:evenodd;stroke:none" /></g><path
           d="m 582.52,414.071 -14.223,0 0,10.219 14.223,0 0,-10.219 z m -0.376,-48.023 -13.474,0 0,42.034 13.474,0 0,-42.034 z"
           id="path66"
           style="fill:#ffffff;fill-opacity:1;fill-rule:evenodd;stroke:none" /><g
           transform="translate(626.5732,428.7808)"
           id="g68"><path
             d="m 0,0 0,-0.75 -13.175,-13.96 -9.208,0 L -13.138,0 0,0 z m -6.849,-51.953 c 0.873,1.074 1.523,2.357 1.947,3.856 0.449,1.52 0.674,3.617 0.674,6.287 0,2.471 -0.225,4.542 -0.674,6.214 -0.449,1.672 -1.074,3.006 -1.873,4.005 -0.798,1.023 -1.758,1.747 -2.881,2.172 -1.121,0.422 -2.332,0.634 -3.629,0.635 -1.299,0 -2.46,-0.175 -3.484,-0.524 -0.998,-0.35 -1.958,-1.048 -2.88,-2.096 -0.823,-0.973 -1.485,-2.308 -1.984,-4.005 -0.473,-1.696 -0.712,-3.83 -0.712,-6.401 0,-2.295 0.213,-4.293 0.637,-5.988 0.424,-1.672 1.046,-3.02 1.87,-4.042 0.8,-0.973 1.748,-1.685 2.847,-2.134 1.123,-0.449 2.394,-0.674 3.816,-0.674 1.224,0 2.382,0.199 3.481,0.599 1.123,0.424 2.071,1.122 2.845,2.096 m 16.581,10.219 c 0,-6.914 -2.021,-12.365 -6.063,-16.357 -4.018,-3.968 -9.67,-5.951 -16.954,-5.951 -7.287,0 -12.952,1.983 -16.994,5.951 -4.02,3.992 -6.026,9.443 -6.026,16.357 0,6.961 2.021,12.426 6.064,16.395 4.067,3.966 9.719,5.95 16.956,5.95 7.335,0 12.999,-1.996 16.991,-5.988 4.018,-3.995 6.023,-9.446 6.026,-16.357"
             id="path70"
             style="fill:#ffffff;fill-opacity:1;fill-rule:evenodd;stroke:none" /></g><g
           transform="translate(160.6523,219.7061)"
           id="g72"><path
             d="m 0,0 c 0,4.093 -0.7,7.062 -2.097,8.907 -1.396,1.846 -3.606,2.769 -6.625,2.771 -1.271,0 -2.583,-0.2 -3.929,-0.599 -1.349,-0.374 -2.633,-0.923 -3.857,-1.645 l 0,-21.15 c 0.901,-0.35 1.861,-0.574 2.884,-0.674 1.023,-0.1 2.031,-0.148 3.032,-0.148 3.568,0 6.224,1.033 7.971,3.104 C -0.875,-7.337 -0.003,-4.192 0,0 m 13.887,0.261 c 0,-3.468 -0.536,-6.625 -1.61,-9.469 -1.048,-2.844 -2.432,-5.19 -4.155,-7.036 -1.795,-1.946 -3.831,-3.42 -6.101,-4.416 -2.272,-0.998 -4.704,-1.497 -7.3,-1.497 -2.394,0 -4.428,0.261 -6.098,0.785 -1.675,0.499 -3.383,1.208 -5.131,2.134 l 0,-17.519 -13.473,0 0,57.455 13.473,0 0,-4.379 c 2.071,1.648 4.18,2.982 6.327,4.005 2.172,1.024 4.666,1.532 7.485,1.535 5.241,0 9.308,-1.923 12.202,-5.765 2.919,-3.842 4.381,-9.12 4.381,-15.833"
             id="path74"
             style="fill:#ce3539;fill-opacity:1;fill-rule:evenodd;stroke:none" /></g><g
           transform="translate(224.6211,198.3711)"
           id="g76"><path
             d="m 0,0 -13.476,0 0,4.642 c -2.495,-1.899 -4.779,-3.345 -6.848,-4.34 -2.072,-0.976 -4.544,-1.463 -7.412,-1.463 -4.642,0 -8.223,1.337 -10.743,4.005 -2.495,2.671 -3.742,6.612 -3.742,11.829 l 0,27.36 13.549,0 0,-20.848 c 0,-2.122 0.063,-3.892 0.188,-5.314 0.151,-1.399 0.472,-2.56 0.973,-3.483 0.474,-0.923 1.184,-1.595 2.132,-2.021 0.975,-0.424 2.322,-0.635 4.045,-0.635 1.146,0 2.419,0.211 3.816,0.635 1.397,0.426 2.746,1.048 4.042,1.873 l 0,29.793 L 0,42.033 0,0 z"
             id="path78"
             style="fill:#ce3539;fill-opacity:1;fill-rule:evenodd;stroke:none" /></g><g
           transform="translate(278.0332,198.3711)"
           id="g80"><path
             d="m 0,0 -13.548,0 0,20.849 c 0,1.695 -0.088,3.38 -0.264,5.052 -0.175,1.696 -0.474,2.945 -0.897,3.745 -0.499,0.922 -1.237,1.594 -2.21,2.02 -0.948,0.422 -2.282,0.635 -4.004,0.638 -1.224,0 -2.471,-0.201 -3.744,-0.603 -1.247,-0.398 -2.608,-1.035 -4.078,-1.908 l 0,-29.793 -13.476,0 0,42.033 13.476,0 0,-4.639 c 2.395,1.871 4.69,3.305 6.886,4.303 2.222,0.998 4.679,1.494 7.373,1.497 4.541,0 8.084,-1.322 10.632,-3.967 C -1.286,36.581 -0.002,32.624 0,27.36 L 0,0 z"
             id="path82"
             style="fill:#ce3539;fill-opacity:1;fill-rule:evenodd;stroke:none" /></g><g
           transform="translate(315.7627,198.7451)"
           id="g84"><path
             d="m 0,0 c -1.447,-0.374 -2.981,-0.659 -4.604,-0.86 -1.622,-0.226 -3.606,-0.336 -5.95,-0.336 -5.241,0 -9.146,1.058 -11.716,3.179 -2.545,2.121 -3.816,5.753 -3.816,10.894 l 0,19.649 -5.542,0 0,9.133 5.542,0 0,12.017 13.473,0 0,-12.017 12.613,0 0,-9.133 -12.613,0 0,-14.895 c 0,-1.475 0.012,-2.758 0.037,-3.857 0.026,-1.098 0.223,-2.084 0.6,-2.957 0.349,-0.875 0.96,-1.572 1.833,-2.095 0.897,-0.499 2.197,-0.75 3.892,-0.75 0.699,0 1.609,0.15 2.733,0.451 1.148,0.299 1.946,0.572 2.397,0.822 L 0,9.245 0,0 z"
             id="path86"
             style="fill:#ce3539;fill-opacity:1;fill-rule:evenodd;stroke:none" /></g></g></g></g></svg>