<?xml version="1.0" encoding="UTF-8" standalone="no"?>
<!-- Generator: Adobe Illustrator 15.0.0, SVG Export Plug-In . SVG Version: 6.00 Build 0)  -->

<svg
   xmlns:dc="http://purl.org/dc/elements/1.1/"
   xmlns:cc="http://creativecommons.org/ns#"
   xmlns:rdf="http://www.w3.org/1999/02/22-rdf-syntax-ns#"
   xmlns:svg="http://www.w3.org/2000/svg"
   xmlns="http://www.w3.org/2000/svg"
   xmlns:sodipodi="http://sodipodi.sourceforge.net/DTD/sodipodi-0.dtd"
   xmlns:inkscape="http://www.inkscape.org/namespaces/inkscape"
   version="1.1"
   id="Layer_1"
   x="0px"
   y="0px"
   width="300"
   height="100"
   viewBox="0 0 300 99.999996"
   enable-background="new 0 0 464.977 313.484"
   xml:space="preserve"
   inkscape:version="0.48.2 r9819"
   sodipodi:docname="logo-navega-catala.svg"><metadata
   id="metadata3629"><rdf:RDF><cc:Work
       rdf:about=""><dc:format>image/svg+xml</dc:format><dc:type
         rdf:resource="http://purl.org/dc/dcmitype/StillImage" /></cc:Work></rdf:RDF></metadata><defs
   id="defs3627" /><sodipodi:namedview
   pagecolor="#ffffff"
   bordercolor="#666666"
   borderopacity="1"
   objecttolerance="10"
   gridtolerance="10"
   guidetolerance="10"
   inkscape:pageopacity="0"
   inkscape:pageshadow="2"
   inkscape:window-width="1328"
   inkscape:window-height="898"
   id="namedview3625"
   showgrid="false"
   inkscape:zoom="0.66454901"
   inkscape:cx="232.48849"
   inkscape:cy="397.50679"
   inkscape:window-x="0"
   inkscape:window-y="0"
   inkscape:window-maximized="0"
   inkscape:current-layer="Layer_1" />


<g
   id="g3313"
   transform="translate(448.42442,259.01686)">
	<path
   d="m -335.7,-235.216 h 6.557 l 7.381,14.066 2.779,6.252 h 0.174 c -0.146,-1.504 -0.312,-3.184 -0.5,-5.037 -0.189,-1.852 -0.283,-3.617 -0.283,-5.295 v -9.986 h 6.08 v 28.307 h -6.557 l -7.381,-14.109 -2.779,-6.166 h -0.174 c 0.145,1.562 0.311,3.242 0.5,5.037 0.188,1.795 0.281,3.531 0.281,5.209 v 10.029 h -6.078 v -28.307 z"
   id="path3315"
   inkscape:connector-curvature="0"
   style="fill:#332b2c" />
	<path
   d="m -293.542,-213.638 h -8.641 l -1.736,6.729 h -6.514 l 8.857,-28.307 h 7.686 l 8.855,28.307 h -6.771 l -1.736,-6.729 z m -1.303,-4.994 -0.652,-2.604 c -0.404,-1.418 -0.797,-2.924 -1.172,-4.515 -0.377,-1.593 -0.754,-3.128 -1.129,-4.604 h -0.174 c -0.348,1.506 -0.701,3.047 -1.062,4.625 -0.363,1.578 -0.746,3.076 -1.152,4.494 l -0.693,2.604 h 6.034 z"
   id="path3317"
   inkscape:connector-curvature="0"
   style="fill:#332b2c" />
	<path
   d="m -286.378,-235.216 h 6.771 l 3.387,13.197 c 0.436,1.564 0.818,3.076 1.15,4.537 0.334,1.463 0.717,2.975 1.15,4.537 h 0.174 c 0.406,-1.562 0.781,-3.074 1.129,-4.537 0.348,-1.461 0.725,-2.973 1.129,-4.537 l 3.344,-13.197 h 6.512 l -8.51,28.307 h -7.684 l -8.552,-28.307 z"
   id="path3319"
   inkscape:connector-curvature="0"
   style="fill:#332b2c" />
	<path
   d="m -258.593,-235.216 h 17.715 v 5.384 h -11.332 v 5.687 h 9.639 v 5.34 h -9.639 v 6.515 h 11.766 v 5.382 h -18.148 v -28.308 z"
   id="path3321"
   inkscape:connector-curvature="0"
   style="fill:#332b2c" />
	<path
   d="m -237.479,-221.057 c 0,-2.344 0.369,-4.434 1.107,-6.273 0.738,-1.838 1.736,-3.393 2.994,-4.666 1.26,-1.273 2.736,-2.244 4.43,-2.91 1.693,-0.664 3.494,-0.998 5.404,-0.998 1.998,0 3.727,0.377 5.189,1.129 1.461,0.754 2.654,1.607 3.582,2.562 l -3.518,3.949 c -0.695,-0.664 -1.426,-1.186 -2.191,-1.562 -0.768,-0.375 -1.76,-0.564 -2.975,-0.564 -1.102,0 -2.105,0.211 -3.018,0.631 -0.912,0.421 -1.701,1.02 -2.367,1.801 -0.666,0.781 -1.18,1.736 -1.541,2.865 -0.361,1.13 -0.543,2.402 -0.543,3.82 0,2.924 0.658,5.189 1.977,6.795 1.316,1.607 3.307,2.41 5.969,2.41 0.58,0 1.145,-0.072 1.693,-0.217 0.551,-0.145 1,-0.361 1.346,-0.652 v -4.86 h -4.688 v -5.212 h 10.332 v 13.025 c -1.014,0.955 -2.344,1.766 -3.994,2.432 -1.65,0.664 -3.473,0.998 -5.471,0.998 -1.91,0 -3.697,-0.311 -5.361,-0.934 -1.664,-0.621 -3.119,-1.541 -4.363,-2.756 -1.244,-1.217 -2.221,-2.729 -2.93,-4.537 -0.708,-1.808 -1.063,-3.901 -1.063,-6.276 z"
   id="path3323"
   inkscape:connector-curvature="0"
   style="fill:#332b2c" />
	<path
   d="m -194.163,-213.471 h -8.641 l -1.736,6.729 h -6.512 l 8.857,-28.306 h 7.684 l 8.857,28.306 h -6.773 l -1.736,-6.729 z m -1.303,-4.993 -0.65,-2.604 c -0.406,-1.418 -0.797,-2.924 -1.172,-4.516 -0.377,-1.592 -0.754,-3.127 -1.129,-4.604 h -0.174 c -0.348,1.506 -0.703,3.047 -1.064,4.625 -0.361,1.578 -0.746,3.076 -1.15,4.494 l -0.693,2.604 h 6.032 z"
   id="path3325"
   inkscape:connector-curvature="0"
   style="fill:#332b2c" />
</g>
<g
   id="g3327"
   transform="translate(448.42442,259.01686)">
	<path
   d="m -293.394,-185.353 c 0,-1.352 0.219,-2.589 0.656,-3.712 0.438,-1.122 1.004,-2.087 1.701,-2.892 0.693,-0.805 1.488,-1.426 2.383,-1.863 0.895,-0.437 1.799,-0.656 2.713,-0.656 0.775,0 1.436,0.125 1.982,0.373 0.547,0.25 0.988,0.597 1.326,1.043 0.338,0.447 0.586,0.984 0.746,1.61 0.158,0.626 0.238,1.307 0.238,2.042 0,0.517 -0.041,0.994 -0.119,1.431 -0.08,0.438 -0.17,0.795 -0.27,1.073 h -9.986 c -0.197,1.133 -0.219,2.102 -0.059,2.906 0.158,0.805 0.438,1.466 0.836,1.982 0.396,0.518 0.896,0.899 1.504,1.147 0.605,0.249 1.268,0.373 1.982,0.373 0.635,0 1.262,-0.139 1.879,-0.417 0.615,-0.278 1.182,-0.606 1.697,-0.984 l 0.566,0.896 c -0.576,0.416 -1.232,0.779 -1.967,1.087 -0.734,0.309 -1.52,0.462 -2.355,0.462 -1.668,0 -2.996,-0.501 -3.979,-1.505 -0.981,-1.003 -1.474,-2.469 -1.474,-4.396 z m 10.434,-2.534 c 0.119,-0.557 0.18,-1.123 0.18,-1.699 0,-0.478 -0.055,-0.949 -0.164,-1.416 -0.109,-0.467 -0.293,-0.88 -0.551,-1.237 -0.26,-0.357 -0.598,-0.646 -1.014,-0.863 -0.418,-0.22 -0.936,-0.329 -1.551,-0.329 -0.637,0 -1.258,0.134 -1.863,0.402 -0.605,0.268 -1.168,0.651 -1.684,1.147 -0.518,0.497 -0.969,1.084 -1.357,1.759 -0.387,0.676 -0.68,1.421 -0.879,2.236 h 8.883 z"
   id="path3329"
   inkscape:connector-curvature="0"
   style="fill:#332b2c" />
	<path
   d="m -276.521,-194.117 h 1.014 l -0.328,2.266 h 0.119 c 0.895,-0.755 1.748,-1.382 2.562,-1.878 0.816,-0.497 1.67,-0.746 2.564,-0.746 1.232,0 2.105,0.318 2.623,0.955 0.518,0.636 0.775,1.48 0.775,2.533 0,0.357 -0.014,0.666 -0.045,0.924 -0.029,0.259 -0.094,0.597 -0.193,1.014 l -1.848,9.241 h -1.223 l 1.848,-9.062 c 0.08,-0.437 0.139,-0.784 0.18,-1.043 0.039,-0.258 0.061,-0.526 0.061,-0.805 0,-0.895 -0.201,-1.561 -0.598,-1.998 -0.398,-0.437 -1.053,-0.655 -1.967,-0.655 -0.637,0 -1.371,0.233 -2.207,0.7 -0.834,0.468 -1.789,1.237 -2.861,2.311 l -2.117,10.553 h -1.25 l 2.891,-14.31 z"
   id="path3331"
   inkscape:connector-curvature="0"
   style="fill:#332b2c" />
	<path
   d="m -258.517,-185.115 c 0,-1.391 0.225,-2.657 0.672,-3.801 0.447,-1.143 1.033,-2.125 1.758,-2.951 0.727,-0.824 1.551,-1.465 2.475,-1.922 0.924,-0.457 1.863,-0.687 2.816,-0.687 0.836,0 1.531,0.16 2.088,0.478 0.555,0.318 1.062,0.735 1.52,1.252 l -0.775,0.835 c -0.438,-0.517 -0.869,-0.895 -1.297,-1.133 -0.428,-0.239 -0.969,-0.358 -1.623,-0.358 -0.816,0 -1.605,0.22 -2.371,0.656 -0.766,0.438 -1.445,1.023 -2.041,1.759 -0.598,0.735 -1.074,1.595 -1.432,2.578 -0.357,0.984 -0.537,2.022 -0.537,3.115 0,1.551 0.328,2.733 0.984,3.548 0.656,0.815 1.648,1.222 2.98,1.222 0.717,0 1.381,-0.148 1.998,-0.446 0.615,-0.298 1.182,-0.646 1.699,-1.044 l 0.625,0.895 c -0.516,0.397 -1.143,0.775 -1.877,1.133 -0.736,0.357 -1.6,0.536 -2.594,0.536 -1.551,0 -2.783,-0.491 -3.697,-1.476 -0.914,-0.984 -1.371,-2.381 -1.371,-4.189 z"
   id="path3333"
   inkscape:connector-curvature="0"
   style="fill:#332b2c" />
	<path
   d="m -246.085,-184.608 c 0,-1.371 0.219,-2.657 0.656,-3.86 0.436,-1.202 1.018,-2.25 1.742,-3.145 0.727,-0.895 1.557,-1.594 2.49,-2.102 0.934,-0.507 1.896,-0.761 2.891,-0.761 0.836,0 1.561,0.214 2.178,0.642 0.615,0.428 1.121,0.988 1.52,1.684 h 0.09 l 0.566,-1.967 h 1.014 l -2.863,14.309 h -1.043 l 0.328,-2.266 h -0.119 c -0.734,0.756 -1.551,1.382 -2.443,1.878 -0.895,0.497 -1.84,0.745 -2.832,0.745 -1.252,0 -2.262,-0.437 -3.027,-1.312 -0.765,-0.874 -1.148,-2.156 -1.148,-3.845 z m 4.441,4.084 c 0.934,0 1.848,-0.267 2.742,-0.805 0.895,-0.536 1.77,-1.301 2.623,-2.294 l 1.492,-7.186 c -0.518,-0.934 -1.07,-1.6 -1.656,-1.997 -0.586,-0.397 -1.217,-0.597 -1.893,-0.597 -0.854,0 -1.674,0.244 -2.459,0.73 -0.785,0.487 -1.477,1.133 -2.072,1.938 -0.596,0.806 -1.072,1.72 -1.43,2.743 -0.359,1.023 -0.537,2.071 -0.537,3.145 0,1.451 0.283,2.535 0.85,3.249 0.567,0.716 1.346,1.074 2.34,1.074 z"
   id="path3335"
   inkscape:connector-curvature="0"
   style="fill:#332b2c" />
	<path
   d="m -227.786,-193.044 h -2.238 l 0.18,-0.954 2.324,-0.119 0.984,-4.084 h 1.043 l -0.834,4.084 h 3.875 l -0.238,1.073 h -3.875 l -1.938,9.39 c -0.041,0.179 -0.07,0.358 -0.09,0.537 -0.02,0.179 -0.029,0.377 -0.029,0.597 0,0.655 0.143,1.152 0.432,1.489 0.287,0.339 0.82,0.507 1.596,0.507 0.336,0 0.65,-0.054 0.938,-0.164 0.289,-0.108 0.553,-0.223 0.791,-0.343 l 0.328,0.925 c -0.279,0.159 -0.617,0.308 -1.014,0.447 -0.398,0.139 -0.826,0.208 -1.283,0.208 -0.557,0 -1.027,-0.074 -1.416,-0.224 -0.387,-0.148 -0.699,-0.353 -0.938,-0.61 -0.238,-0.259 -0.408,-0.562 -0.508,-0.909 -0.1,-0.347 -0.148,-0.711 -0.148,-1.089 0,-0.277 0.01,-0.521 0.029,-0.729 0.02,-0.209 0.049,-0.442 0.09,-0.701 l 1.939,-9.331 z"
   id="path3337"
   inkscape:connector-curvature="0"
   style="fill:#332b2c" />
	<path
   d="m -221.761,-184.608 c 0,-1.371 0.219,-2.657 0.656,-3.86 0.438,-1.202 1.018,-2.25 1.744,-3.145 0.725,-0.895 1.555,-1.594 2.49,-2.102 0.934,-0.507 1.896,-0.761 2.891,-0.761 0.834,0 1.561,0.214 2.176,0.642 0.615,0.428 1.123,0.988 1.52,1.684 h 0.09 l 0.566,-1.967 h 1.014 l -2.861,14.309 h -1.043 l 0.328,-2.266 h -0.119 c -0.736,0.756 -1.551,1.382 -2.445,1.878 -0.895,0.497 -1.838,0.745 -2.832,0.745 -1.252,0 -2.26,-0.437 -3.025,-1.312 -0.767,-0.874 -1.15,-2.156 -1.15,-3.845 z m 4.442,4.084 c 0.936,0 1.85,-0.267 2.744,-0.805 0.895,-0.536 1.768,-1.301 2.623,-2.294 l 1.49,-7.186 c -0.518,-0.934 -1.068,-1.6 -1.654,-1.997 -0.586,-0.397 -1.219,-0.597 -1.893,-0.597 -0.855,0 -1.676,0.244 -2.461,0.73 -0.785,0.487 -1.475,1.133 -2.07,1.938 -0.598,0.806 -1.074,1.72 -1.432,2.743 -0.358,1.023 -0.537,2.071 -0.537,3.145 0,1.451 0.283,2.535 0.85,3.249 0.566,0.716 1.347,1.074 2.34,1.074 z"
   id="path3339"
   inkscape:connector-curvature="0"
   style="fill:#332b2c" />
	<path
   d="m -201.876,-201.242 h 1.221 l -3.904,19.675 c -0.041,0.159 -0.061,0.283 -0.061,0.373 0,0.09 0,0.163 0,0.224 0,0.298 0.139,0.446 0.418,0.446 0.08,0 0.145,-0.004 0.193,-0.015 0.051,-0.01 0.154,-0.045 0.314,-0.104 l 0.088,0.984 c -0.158,0.079 -0.312,0.134 -0.461,0.164 -0.15,0.029 -0.334,0.044 -0.553,0.044 -0.396,0 -0.715,-0.109 -0.953,-0.327 -0.238,-0.219 -0.357,-0.537 -0.357,-0.954 0,-0.219 0.049,-0.526 0.148,-0.925 l 3.907,-19.585 z"
   id="path3341"
   inkscape:connector-curvature="0"
   style="fill:#332b2c" />
	<path
   d="m -199.136,-184.608 c 0,-1.371 0.219,-2.657 0.656,-3.86 0.438,-1.202 1.018,-2.25 1.744,-3.145 0.725,-0.895 1.555,-1.594 2.49,-2.102 0.934,-0.507 1.896,-0.761 2.891,-0.761 0.834,0 1.561,0.214 2.176,0.642 0.615,0.428 1.123,0.988 1.52,1.684 h 0.09 l 0.566,-1.967 h 1.014 l -2.861,14.309 h -1.043 l 0.328,-2.266 h -0.119 c -0.736,0.756 -1.551,1.382 -2.445,1.878 -0.895,0.497 -1.838,0.745 -2.832,0.745 -1.252,0 -2.26,-0.437 -3.025,-1.312 -0.767,-0.874 -1.15,-2.156 -1.15,-3.845 z m 4.442,4.084 c 0.936,0 1.85,-0.267 2.744,-0.805 0.895,-0.536 1.768,-1.301 2.623,-2.294 l 1.49,-7.186 c -0.518,-0.934 -1.068,-1.6 -1.654,-1.997 -0.586,-0.397 -1.219,-0.597 -1.893,-0.597 -0.855,0 -1.676,0.244 -2.461,0.73 -0.785,0.487 -1.475,1.133 -2.07,1.938 -0.598,0.806 -1.074,1.72 -1.432,2.743 -0.358,1.023 -0.537,2.071 -0.537,3.145 0,1.451 0.283,2.535 0.85,3.249 0.566,0.716 1.347,1.074 2.34,1.074 z m 2.236,-20.33 h 1.371 l 1.76,4.054 h -0.955 l -2.176,-4.054 z"
   id="path3343"
   inkscape:connector-curvature="0"
   style="fill:#332b2c" />
</g>
<g
   id="g3345"
   transform="translate(448.42442,259.01686)">
	<path
   d="m -293.394,-185.353 c 0,-1.352 0.219,-2.589 0.656,-3.712 0.438,-1.122 1.004,-2.087 1.701,-2.892 0.693,-0.805 1.488,-1.426 2.383,-1.863 0.895,-0.437 1.799,-0.656 2.713,-0.656 0.775,0 1.436,0.125 1.982,0.373 0.547,0.25 0.988,0.597 1.326,1.043 0.338,0.447 0.586,0.984 0.746,1.61 0.158,0.626 0.238,1.307 0.238,2.042 0,0.517 -0.041,0.994 -0.119,1.431 -0.08,0.438 -0.17,0.795 -0.27,1.073 h -9.986 c -0.197,1.133 -0.219,2.102 -0.059,2.906 0.158,0.805 0.438,1.466 0.836,1.982 0.396,0.518 0.896,0.899 1.504,1.147 0.605,0.249 1.268,0.373 1.982,0.373 0.635,0 1.262,-0.139 1.879,-0.417 0.615,-0.278 1.182,-0.606 1.697,-0.984 l 0.566,0.896 c -0.576,0.416 -1.232,0.779 -1.967,1.087 -0.734,0.309 -1.52,0.462 -2.355,0.462 -1.668,0 -2.996,-0.501 -3.979,-1.505 -0.981,-1.003 -1.474,-2.469 -1.474,-4.396 z m 10.434,-2.534 c 0.119,-0.557 0.18,-1.123 0.18,-1.699 0,-0.478 -0.055,-0.949 -0.164,-1.416 -0.109,-0.467 -0.293,-0.88 -0.551,-1.237 -0.26,-0.357 -0.598,-0.646 -1.014,-0.863 -0.418,-0.22 -0.936,-0.329 -1.551,-0.329 -0.637,0 -1.258,0.134 -1.863,0.402 -0.605,0.268 -1.168,0.651 -1.684,1.147 -0.518,0.497 -0.969,1.084 -1.357,1.759 -0.387,0.676 -0.68,1.421 -0.879,2.236 h 8.883 z"
   id="path3347"
   inkscape:connector-curvature="0"
   style="fill:#332b2c" />
	<path
   d="m -276.521,-194.117 h 1.014 l -0.328,2.266 h 0.119 c 0.895,-0.755 1.748,-1.382 2.562,-1.878 0.816,-0.497 1.67,-0.746 2.564,-0.746 1.232,0 2.105,0.318 2.623,0.955 0.518,0.636 0.775,1.48 0.775,2.533 0,0.357 -0.014,0.666 -0.045,0.924 -0.029,0.259 -0.094,0.597 -0.193,1.014 l -1.848,9.241 h -1.223 l 1.848,-9.062 c 0.08,-0.437 0.139,-0.784 0.18,-1.043 0.039,-0.258 0.061,-0.526 0.061,-0.805 0,-0.895 -0.201,-1.561 -0.598,-1.998 -0.398,-0.437 -1.053,-0.655 -1.967,-0.655 -0.637,0 -1.371,0.233 -2.207,0.7 -0.834,0.468 -1.789,1.237 -2.861,2.311 l -2.117,10.553 h -1.25 l 2.891,-14.31 z"
   id="path3349"
   inkscape:connector-curvature="0"
   style="fill:#332b2c" />
	<path
   d="m -258.517,-185.115 c 0,-1.391 0.225,-2.657 0.672,-3.801 0.447,-1.143 1.033,-2.125 1.758,-2.951 0.727,-0.824 1.551,-1.465 2.475,-1.922 0.924,-0.457 1.863,-0.687 2.816,-0.687 0.836,0 1.531,0.16 2.088,0.478 0.555,0.318 1.062,0.735 1.52,1.252 l -0.775,0.835 c -0.438,-0.517 -0.869,-0.895 -1.297,-1.133 -0.428,-0.239 -0.969,-0.358 -1.623,-0.358 -0.816,0 -1.605,0.22 -2.371,0.656 -0.766,0.438 -1.445,1.023 -2.041,1.759 -0.598,0.735 -1.074,1.595 -1.432,2.578 -0.357,0.984 -0.537,2.022 -0.537,3.115 0,1.551 0.328,2.733 0.984,3.548 0.656,0.815 1.648,1.222 2.98,1.222 0.717,0 1.381,-0.148 1.998,-0.446 0.615,-0.298 1.182,-0.646 1.699,-1.044 l 0.625,0.895 c -0.516,0.397 -1.143,0.775 -1.877,1.133 -0.736,0.357 -1.6,0.536 -2.594,0.536 -1.551,0 -2.783,-0.491 -3.697,-1.476 -0.914,-0.984 -1.371,-2.381 -1.371,-4.189 z"
   id="path3351"
   inkscape:connector-curvature="0"
   style="fill:#332b2c" />
	<path
   d="m -246.085,-184.608 c 0,-1.371 0.219,-2.657 0.656,-3.86 0.436,-1.202 1.018,-2.25 1.742,-3.145 0.727,-0.895 1.557,-1.594 2.49,-2.102 0.934,-0.507 1.896,-0.761 2.891,-0.761 0.836,0 1.561,0.214 2.178,0.642 0.615,0.428 1.121,0.988 1.52,1.684 h 0.09 l 0.566,-1.967 h 1.014 l -2.863,14.309 h -1.043 l 0.328,-2.266 h -0.119 c -0.734,0.756 -1.551,1.382 -2.443,1.878 -0.895,0.497 -1.84,0.745 -2.832,0.745 -1.252,0 -2.262,-0.437 -3.027,-1.312 -0.765,-0.874 -1.148,-2.156 -1.148,-3.845 z m 4.441,4.084 c 0.934,0 1.848,-0.267 2.742,-0.805 0.895,-0.536 1.77,-1.301 2.623,-2.294 l 1.492,-7.186 c -0.518,-0.934 -1.07,-1.6 -1.656,-1.997 -0.586,-0.397 -1.217,-0.597 -1.893,-0.597 -0.854,0 -1.674,0.244 -2.459,0.73 -0.785,0.487 -1.477,1.133 -2.072,1.938 -0.596,0.806 -1.072,1.72 -1.43,2.743 -0.359,1.023 -0.537,2.071 -0.537,3.145 0,1.451 0.283,2.535 0.85,3.249 0.567,0.716 1.346,1.074 2.34,1.074 z"
   id="path3353"
   inkscape:connector-curvature="0"
   style="fill:#332b2c" />
	<path
   d="m -227.786,-193.044 h -2.238 l 0.18,-0.954 2.324,-0.119 0.984,-4.084 h 1.043 l -0.834,4.084 h 3.875 l -0.238,1.073 h -3.875 l -1.938,9.39 c -0.041,0.179 -0.07,0.358 -0.09,0.537 -0.02,0.179 -0.029,0.377 -0.029,0.597 0,0.655 0.143,1.152 0.432,1.489 0.287,0.339 0.82,0.507 1.596,0.507 0.336,0 0.65,-0.054 0.938,-0.164 0.289,-0.108 0.553,-0.223 0.791,-0.343 l 0.328,0.925 c -0.279,0.159 -0.617,0.308 -1.014,0.447 -0.398,0.139 -0.826,0.208 -1.283,0.208 -0.557,0 -1.027,-0.074 -1.416,-0.224 -0.387,-0.148 -0.699,-0.353 -0.938,-0.61 -0.238,-0.259 -0.408,-0.562 -0.508,-0.909 -0.1,-0.347 -0.148,-0.711 -0.148,-1.089 0,-0.277 0.01,-0.521 0.029,-0.729 0.02,-0.209 0.049,-0.442 0.09,-0.701 l 1.939,-9.331 z"
   id="path3355"
   inkscape:connector-curvature="0"
   style="fill:#332b2c" />
	<path
   d="m -221.761,-184.608 c 0,-1.371 0.219,-2.657 0.656,-3.86 0.438,-1.202 1.018,-2.25 1.744,-3.145 0.725,-0.895 1.555,-1.594 2.49,-2.102 0.934,-0.507 1.896,-0.761 2.891,-0.761 0.834,0 1.561,0.214 2.176,0.642 0.615,0.428 1.123,0.988 1.52,1.684 h 0.09 l 0.566,-1.967 h 1.014 l -2.861,14.309 h -1.043 l 0.328,-2.266 h -0.119 c -0.736,0.756 -1.551,1.382 -2.445,1.878 -0.895,0.497 -1.838,0.745 -2.832,0.745 -1.252,0 -2.26,-0.437 -3.025,-1.312 -0.767,-0.874 -1.15,-2.156 -1.15,-3.845 z m 4.442,4.084 c 0.936,0 1.85,-0.267 2.744,-0.805 0.895,-0.536 1.768,-1.301 2.623,-2.294 l 1.49,-7.186 c -0.518,-0.934 -1.068,-1.6 -1.654,-1.997 -0.586,-0.397 -1.219,-0.597 -1.893,-0.597 -0.855,0 -1.676,0.244 -2.461,0.73 -0.785,0.487 -1.475,1.133 -2.07,1.938 -0.598,0.806 -1.074,1.72 -1.432,2.743 -0.358,1.023 -0.537,2.071 -0.537,3.145 0,1.451 0.283,2.535 0.85,3.249 0.566,0.716 1.347,1.074 2.34,1.074 z"
   id="path3357"
   inkscape:connector-curvature="0"
   style="fill:#332b2c" />
	<path
   d="m -201.876,-201.242 h 1.221 l -3.904,19.675 c -0.041,0.159 -0.061,0.283 -0.061,0.373 0,0.09 0,0.163 0,0.224 0,0.298 0.139,0.446 0.418,0.446 0.08,0 0.145,-0.004 0.193,-0.015 0.051,-0.01 0.154,-0.045 0.314,-0.104 l 0.088,0.984 c -0.158,0.079 -0.312,0.134 -0.461,0.164 -0.15,0.029 -0.334,0.044 -0.553,0.044 -0.396,0 -0.715,-0.109 -0.953,-0.327 -0.238,-0.219 -0.357,-0.537 -0.357,-0.954 0,-0.219 0.049,-0.526 0.148,-0.925 l 3.907,-19.585 z"
   id="path3359"
   inkscape:connector-curvature="0"
   style="fill:#332b2c" />
	<path
   d="m -199.136,-184.608 c 0,-1.371 0.219,-2.657 0.656,-3.86 0.438,-1.202 1.018,-2.25 1.744,-3.145 0.725,-0.895 1.555,-1.594 2.49,-2.102 0.934,-0.507 1.896,-0.761 2.891,-0.761 0.834,0 1.561,0.214 2.176,0.642 0.615,0.428 1.123,0.988 1.52,1.684 h 0.09 l 0.566,-1.967 h 1.014 l -2.861,14.309 h -1.043 l 0.328,-2.266 h -0.119 c -0.736,0.756 -1.551,1.382 -2.445,1.878 -0.895,0.497 -1.838,0.745 -2.832,0.745 -1.252,0 -2.26,-0.437 -3.025,-1.312 -0.767,-0.874 -1.15,-2.156 -1.15,-3.845 z m 4.442,4.084 c 0.936,0 1.85,-0.267 2.744,-0.805 0.895,-0.536 1.768,-1.301 2.623,-2.294 l 1.49,-7.186 c -0.518,-0.934 -1.068,-1.6 -1.654,-1.997 -0.586,-0.397 -1.219,-0.597 -1.893,-0.597 -0.855,0 -1.676,0.244 -2.461,0.73 -0.785,0.487 -1.475,1.133 -2.07,1.938 -0.598,0.806 -1.074,1.72 -1.432,2.743 -0.358,1.023 -0.537,2.071 -0.537,3.145 0,1.451 0.283,2.535 0.85,3.249 0.566,0.716 1.347,1.074 2.34,1.074 z m 2.236,-20.33 h 1.371 l 1.76,4.054 h -0.955 l -2.176,-4.054 z"
   id="path3361"
   inkscape:connector-curvature="0"
   style="fill:#332b2c" />
</g>
<g
   id="g3363"
   transform="translate(448.42442,259.01686)">
	<path
   d="m -420.894,-220.123 c 0,-1.23 0.371,-2.218 1.115,-2.963 0.74,-0.74 1.645,-1.115 2.707,-1.115 1.02,0 1.898,0.375 2.645,1.115 0.744,0.745 1.115,1.732 1.115,2.963 0,1.148 -0.371,2.094 -1.115,2.836 -0.746,0.743 -1.625,1.114 -2.645,1.114 -1.062,0 -1.967,-0.371 -2.707,-1.114 -0.743,-0.742 -1.115,-1.688 -1.115,-2.836 z m 0,23.001 c 0,-1.232 0.371,-2.22 1.115,-2.964 0.74,-0.745 1.645,-1.114 2.707,-1.114 1.02,0 1.898,0.369 2.645,1.114 0.744,0.744 1.115,1.731 1.115,2.964 0,1.144 -0.371,2.093 -1.115,2.835 -0.746,0.744 -1.625,1.113 -2.645,1.113 -1.062,0 -1.967,-0.369 -2.707,-1.113 -0.743,-0.742 -1.115,-1.692 -1.115,-2.835 z"
   id="path3365"
   inkscape:connector-curvature="0"
   style="fill:#332b2c" />
</g>
<path
   d="m 57.208421,23.844857 h 6.115 l -12.807,55.428 h -6.115 l 12.807,-55.428 z"
   id="path3367"
   inkscape:connector-curvature="0"
   style="fill:#be2d36" />
<path
   d="m 69.603421,23.844857 h 6.117 l -12.807,55.428 h -6.117 l 12.807,-55.428 z"
   id="path3369"
   inkscape:connector-curvature="0"
   style="fill:#be2d36" />
<path
   d="m 81.997421,23.844857 h 6.117 l -12.807,55.428 h -6.115 l 12.805,-55.428 z"
   id="path3371"
   inkscape:connector-curvature="0"
   style="fill:#be2d36" />
<path
   d="m 94.396421,23.844857 h 6.114999 l -12.804999,55.428 h -6.119 l 12.809,-55.428 z"
   id="path3373"
   inkscape:connector-curvature="0"
   style="fill:#be2d36" />

































</svg>